<svg width="135" height="25" viewBox="0 0 135 25" fill="none" xmlns="http://www.w3.org/2000/svg">
<path d="M24.224 9.024L26.144 1.216H31.776L25.536 24H19.488L17.6 15.936C17.0027 13.5253 16.4373 10.784 15.904 7.712C15.4347 10.1867 14.8693 12.928 14.208 15.936L12.288 24H6.24L0 1.216H5.664L7.552 9.024C8.36267 12.352 9.03467 15.328 9.568 17.952C10.2933 14.112 10.8907 11.136 11.36 9.024L13.184 1.216H18.592L20.416 9.024C21.0133 11.6267 21.6107 14.624 22.208 18.016C22.5067 16.6507 23.1787 13.6533 24.224 9.024ZM46.6495 11.84C47.8868 12.288 48.8468 12.992 49.5295 13.952C50.2335 14.912 50.5855 16.0533 50.5855 17.376C50.5855 19.488 49.7855 21.2053 48.1855 22.528C46.5642 23.8507 44.3562 24.512 41.5615 24.512C38.4468 24.512 36.0788 23.776 34.4575 22.304C32.8362 20.832 32.0255 18.7413 32.0255 16.032H37.2095C37.2308 17.44 37.5722 18.464 38.2335 19.104C38.9162 19.7227 39.9615 20.032 41.3695 20.032C42.5215 20.032 43.4175 19.776 44.0575 19.264C44.6975 18.7307 45.0175 18.016 45.0175 17.12C45.0175 15.072 43.7375 14.048 41.1775 14.048H39.4815V10.24H41.2735C43.5988 10.24 44.7615 9.33333 44.7615 7.52C44.7615 6.73067 44.4735 6.10133 43.8975 5.632C43.3215 5.16267 42.5002 4.928 41.4335 4.928C40.2815 4.928 39.4068 5.184 38.8095 5.696C38.2335 6.18667 37.9028 6.976 37.8175 8.064H32.6335C32.8042 3.15733 35.7482 0.703999 41.4655 0.703999C44.0895 0.703999 46.1482 1.26933 47.6415 2.4C49.1562 3.53067 49.9135 5.06667 49.9135 7.008C49.9135 8.05333 49.6148 9.00267 49.0175 9.856C48.4415 10.7093 47.6522 11.3707 46.6495 11.84ZM67.9815 5.984V1.216H73.1335V24H67.3095L61.7415 14.912C60.0348 12.0747 58.8508 10.0053 58.1895 8.704C58.2748 11.6267 58.3175 15.136 58.3175 19.232V24H53.1655V1.216H58.9895L64.5575 10.304C66.1575 12.9493 67.3415 15.04 68.1095 16.576C68.0242 13.6107 67.9815 10.08 67.9815 5.984Z" fill="black"/>
<path d="M76.603 1.216H86.971C89.595 1.216 91.6537 1.90933 93.147 3.296C94.6403 4.66133 95.387 6.528 95.387 8.896C95.387 11.264 94.6403 13.1413 93.147 14.528C91.6537 15.8933 89.595 16.576 86.971 16.576H82.011V24H76.603V1.216ZM82.011 12H86.619C87.6857 12 88.507 11.7333 89.083 11.2C89.6803 10.6667 89.979 9.89867 89.979 8.896C89.979 7.89333 89.6803 7.12533 89.083 6.592C88.4857 6.05867 87.6643 5.792 86.619 5.792H82.011V12ZM116.423 24H110.695L109.351 20.032H99.8793L98.5673 24H93.0312L101.415 1.216H107.847L116.423 24ZM102.695 11.616L101.383 15.52H107.815L106.503 11.616C106.098 10.464 105.458 8.544 104.583 5.856C103.453 9.33333 102.823 11.2533 102.695 11.616ZM127.122 4.48L129.042 1.216H134.994L126.546 15.136V24H121.138V15.136L112.594 1.216H118.706L120.69 4.512C121.415 5.77067 121.97 6.73067 122.354 7.392C122.524 7.712 122.727 8.08533 122.962 8.512C123.218 8.93867 123.42 9.28 123.57 9.536C123.719 9.792 123.847 10.0053 123.954 10.176C125.148 7.97867 126.204 6.08 127.122 4.48Z" fill="#10B981"/>
</svg>
