<?xml version="1.0" standalone="no"?>
<!DOCTYPE svg PUBLIC "-//W3C//DTD SVG 20010904//EN"
 "http://www.w3.org/TR/2001/REC-SVG-20010904/DTD/svg10.dtd">
<svg version="1.0" xmlns="http://www.w3.org/2000/svg"
 width="700.000000pt" height="700.000000pt" viewBox="0 0 700.000000 700.000000"
 preserveAspectRatio="xMidYMid meet">
<metadata>
Created by potrace 1.14, written by Peter Selinger 2001-2017
</metadata>
<g transform="translate(0.000000,700.000000) scale(0.100000,-0.100000)"
fill="#000000" stroke="none">
<path d="M6338 6052 c-26 -48 -66 -118 -88 -157 -22 -38 -45 -79 -50 -90 -6
-11 -14 -27 -20 -35 -5 -8 -38 -64 -71 -125 -115 -205 -709 -1260 -719 -1275
-5 -8 -44 -78 -88 -155 -44 -77 -88 -156 -99 -175 -11 -19 -44 -78 -73 -130
-29 -52 -84 -148 -122 -213 -37 -65 -68 -120 -68 -123 0 -2 -10 -21 -23 -42
-13 -20 -37 -62 -54 -92 -16 -30 -60 -109 -98 -175 -37 -66 -77 -136 -88 -155
-10 -19 -64 -116 -120 -215 -55 -99 -106 -186 -112 -193 -10 -11 -26 -5 -88
35 -41 26 -167 107 -281 178 -113 72 -206 132 -206 135 0 3 20 28 45 55 25 27
62 68 82 90 35 38 217 237 238 261 6 6 48 52 95 104 47 51 99 108 115 125 17
18 64 70 105 116 72 80 176 193 212 231 20 21 7 25 -14 5 -7 -8 -18 -16 -24
-18 -11 -4 -651 -409 -776 -491 -40 -27 -82 -53 -93 -58 -11 -6 -46 -27 -77
-48 -147 -95 -241 -152 -251 -152 -7 0 -39 17 -72 39 -33 21 -136 87 -230 146
-209 132 -296 187 -400 253 -44 28 -190 121 -325 206 -135 85 -250 158 -256
163 -5 4 -21 14 -35 22 -23 14 -23 13 -9 -5 8 -10 20 -24 25 -30 24 -25 192
-209 210 -230 11 -12 54 -59 95 -104 41 -45 86 -94 99 -109 13 -14 44 -49 70
-76 126 -138 163 -178 247 -270 50 -55 111 -122 135 -149 24 -28 52 -57 62
-65 29 -26 43 -15 -208 -174 -38 -24 -145 -92 -238 -151 -92 -58 -169 -106
-171 -106 -2 0 -21 30 -42 68 -85 152 -372 661 -459 813 -41 72 -75 132 -75
134 0 2 -24 46 -54 97 -64 111 -253 443 -291 513 -15 28 -43 76 -61 108 -19
32 -34 60 -34 62 0 2 -19 36 -43 77 -24 40 -57 98 -74 128 -17 30 -57 102 -90
160 -33 58 -103 182 -155 275 -53 94 -106 186 -117 205 -11 19 -24 42 -28 50
-10 22 -231 412 -243 430 -6 8 -13 21 -17 29 -4 8 -31 58 -61 110 -30 53 -66
117 -80 144 -14 26 -26 46 -28 44 -3 -3 96 -379 293 -1107 52 -195 99 -368
103 -385 4 -16 83 -311 175 -655 93 -344 178 -663 191 -710 12 -47 32 -121 44
-165 12 -44 23 -87 25 -95 2 -8 18 -67 35 -130 17 -63 33 -122 35 -130 4 -17
35 -132 119 -445 31 -115 65 -246 77 -290 12 -44 25 -93 30 -110 9 -28 48
-174 114 -425 15 -58 42 -159 60 -225 18 -66 41 -151 51 -189 l18 -69 65 70
c36 39 100 108 141 153 41 46 89 98 105 116 17 17 66 71 110 120 44 48 91 99
103 113 149 163 194 213 228 250 21 24 53 59 69 76 40 42 100 109 210 230 50
55 99 109 110 121 11 11 42 45 69 75 90 98 231 253 251 274 11 12 39 42 62 68
l42 45 37 -41 c21 -23 62 -69 93 -103 31 -33 94 -102 141 -154 47 -51 96 -105
110 -120 14 -15 63 -69 110 -121 133 -147 204 -224 210 -229 3 -3 27 -30 54
-60 27 -30 74 -82 105 -115 31 -34 99 -108 151 -165 52 -58 120 -132 150 -165
31 -33 71 -77 90 -99 46 -51 59 -65 164 -179 49 -53 91 -95 93 -93 3 3 38 121
48 166 2 8 18 67 35 130 17 63 32 122 34 130 2 8 41 152 86 320 45 168 91 339
102 380 10 41 35 134 54 205 66 242 106 390 109 405 2 8 70 260 150 560 81
300 148 552 150 560 2 8 11 40 19 70 8 30 26 100 41 155 15 55 35 129 45 165
10 36 51 187 90 335 39 149 91 344 116 435 24 91 49 181 54 200 5 19 16 60 25
90 13 47 89 334 101 380 2 8 20 76 40 150 19 74 37 142 39 150 2 8 11 41 20
73 9 32 15 60 13 62 -1 2 -24 -36 -50 -83z"/>
</g>
</svg>
